<?xml version="1.0" encoding="UTF-8"?>
<!DOCTYPE svg PUBLIC "-//W3C//DTD SVG 1.1//EN" "http://www.w3.org/Graphics/SVG/1.1/DTD/svg11.dtd">
<svg xmlns="http://www.w3.org/2000/svg" version="1.1" width="559px" height="447px" style="shape-rendering:geometricPrecision; text-rendering:geometricPrecision; image-rendering:optimizeQuality; fill-rule:evenodd; clip-rule:evenodd" xmlns:xlink="http://www.w3.org/1999/xlink">
<g><path style="opacity:0.306" fill="#4a7eaa" d="M 370.5,60.5 C 298.999,61.1667 227.332,61.8333 155.5,62.5C 160.252,67.2439 164.585,72.2439 168.5,77.5C 162.396,72.4012 157.063,66.7345 152.5,60.5C 225.167,60.5 297.833,60.5 370.5,60.5 Z"/></g>
<g><path style="opacity:1" fill="#2b83d1" d="M 370.5,60.5 C 416.885,67.5891 450.052,92.2558 470,134.5C 487.577,183.278 479.243,226.944 445,265.5C 430.364,280.627 412.864,290.96 392.5,296.5C 385.853,297.238 379.186,298.405 372.5,300C 367.845,300.499 363.179,300.666 358.5,300.5C 359.162,249.156 358.496,198.156 356.5,147.5C 337.196,146.168 317.863,146.168 298.5,147.5C 297.833,166.833 297.167,186.167 296.5,205.5C 253.398,163.065 210.731,120.398 168.5,77.5C 164.585,72.2439 160.252,67.2439 155.5,62.5C 227.332,61.8333 298.999,61.1667 370.5,60.5 Z"/></g>
<g><path style="opacity:1" fill="#2b83d1" d="M 197.5,145.5 C 198.919,146.451 200.585,146.784 202.5,146.5C 202.644,197.867 202.477,249.201 202,300.5C 202.75,301.126 203.584,301.626 204.5,302C 214,302.167 223.5,302.333 233,302.5C 242.858,302.498 252.358,301.832 261.5,300.5C 262.156,280.231 262.822,259.898 263.5,239.5C 264.5,240 265.5,240.5 266.5,241C 312.032,288.699 358.366,335.532 405.5,381.5C 406.038,383.117 406.371,384.784 406.5,386.5C 336.499,386.667 266.499,386.5 196.5,386C 186.609,383.793 176.609,381.959 166.5,380.5C 127.209,367.375 101.042,341.042 88,301.5C 74.3889,242.298 92.5556,195.798 142.5,162C 159.567,152.143 177.901,146.643 197.5,145.5 Z"/></g>
<g><path style="opacity:0.99" fill="#3d7db7" d="M 356.5,147.5 C 358.496,198.156 359.162,249.156 358.5,300.5C 363.179,300.666 367.845,300.499 372.5,300C 379.186,298.405 385.853,297.238 392.5,296.5C 380.958,300.531 368.958,302.198 356.5,301.5C 356.5,250.167 356.5,198.833 356.5,147.5 Z"/></g>
<g><path style="opacity:1" fill="#3779b4" d="M 197.5,145.5 C 199.5,145.5 201.5,145.5 203.5,145.5C 203.5,197.167 203.5,248.833 203.5,300.5C 222.833,300.5 242.167,300.5 261.5,300.5C 252.358,301.832 242.858,302.498 233,302.5C 223.5,302.333 214,302.167 204.5,302C 203.584,301.626 202.75,301.126 202,300.5C 202.477,249.201 202.644,197.867 202.5,146.5C 200.585,146.784 198.919,146.451 197.5,145.5 Z"/></g>
<g><path style="opacity:0.075" fill="#4e87bd" d="M 166.5,380.5 C 176.609,381.959 186.609,383.793 196.5,386C 266.499,386.5 336.499,386.667 406.5,386.5C 406.371,384.784 406.038,383.117 405.5,381.5C 407.054,382.914 408.388,384.581 409.5,386.5C 337.836,387.667 266.169,387.833 194.5,387C 184.613,386.638 175.279,384.472 166.5,380.5 Z"/></g>
</svg>
